<svg id="Layer_3" data-name="Layer 3" xmlns="http://www.w3.org/2000/svg" viewBox="0 0 343.78 252.8"><defs><style>.cls-1{fill:#c49332;}</style></defs><title>SmallLogo_gold_shadow</title><g id="Layer_1_Image_copy" data-name="Layer 1 Image copy"><path d="M343.47,27.57c-.94-2.12-1.84-4.25-2.87-6.32a2.66,2.66,0,0,1,.06-2.82,1.22,1.22,0,0,0-.14-1.71h0a10.88,10.88,0,0,1-3.07-9A1.75,1.75,0,0,1,338.55,6c1-.29.65-.83.28-1.33a1.49,1.49,0,0,0-2.06-.39l-.22.19a13.26,13.26,0,0,0-2,2.48,140.16,140.16,0,0,0-9.39,16.69c-6.73,13.54-13,27.29-19.43,41-4.45,9.51-9,19-13,28.69-1,2.29-.92,2.28-3.47,2.21-.69,0-.92-.15-.72-.89.72-2.66,1.39-5.33,2.35-7.92a6.25,6.25,0,0,1,1.49-2.7,2,2,0,0,0,.65-1.2c1.84-8.75,3.67-17.49,6.2-26.07,1.1-3.71,2.13-7.46,4.28-10.75.27-.42.07-.75-.08-1.11-.89-2.09-1.73-4.21-2.71-6.26a3.09,3.09,0,0,1,0-3.06A1.11,1.11,0,0,0,300.5,34a11.09,11.09,0,0,1-3.14-8.87,2.07,2.07,0,0,1,1.09-2c.88-.41.93-.85.19-1.51-.9-.8-1.67-.64-2.78.72a75.92,75.92,0,0,0-9.51,15.48C278.89,53.56,271.66,69.43,264,85.08c-2.61,5.3-5.2,10.61-8.26,15.67a2.47,2.47,0,0,1-3.29.91c-1-.37-1.21-.76-.41-1.68A16.12,16.12,0,0,0,254,97a96,96,0,0,0,4.34-9.59,18.27,18.27,0,0,0,1.2-3.37,242.88,242.88,0,0,1,5.23-23.72c1.06-3.68,2.09-7.38,4.34-10.57.33-.47.15-.82,0-1.22-.92-2-1.77-4.11-2.79-6.09a3.31,3.31,0,0,1,0-3.28,1.11,1.11,0,0,0-.16-1.48,11.2,11.2,0,0,1-3-8.92,2,2,0,0,1,1.26-2c.28-.1.63-.1.52-.61-.14-.67-1.2-1.62-1.75-1.31-1.19.67-2.57,1.13-3.26,2.48-9.72,19.24-19.49,38.45-28.75,57.91-3,6.34-6.08,12.66-8.49,19.27a6,6,0,0,0-.16,3.64c.61,2.36,1.43,4.65,2.11,7,.34,1.17.87,1.43,2,1,.64-.22,1.36-.2,2-.41a1.9,1.9,0,0,1,2.13.63,17.61,17.61,0,0,1,4,6.88c.46,1.27,1.24,1.74,2.4,1.17a18.82,18.82,0,0,0,4.82-3.32c.44-.42.7-1.81,1.54-.29,0,.09.45,0,.67,0,1.1-.2,2.43-.92,3.25-.54,2,.92,3.73-.28,5.57-.2,1.24,0,2.46.24,3.7.32,1.85.11,3.65.81,5.56.26a9.73,9.73,0,0,1,7.14.21,1.58,1.58,0,0,0,1.05-.06,30.29,30.29,0,0,1,8-.74c6.54.29,13.08.55,19.62.82a8.2,8.2,0,0,0,5.73-1.68,36.86,36.86,0,0,0,10.65-12.62c1.39-2.5,2.35-5.24,3.59-7.84a35.68,35.68,0,0,1,4.28-7.59,10.09,10.09,0,0,0,1.78-3.5,69.22,69.22,0,0,1,2.53-6.84,20,20,0,0,0,1.58-3c3.37-12.81,6.78-25.6,11-38.17,1.24-3.7,2.42-7.44,4.54-10.78A1.37,1.37,0,0,0,343.47,27.57Z" transform="translate(-0.01 0.01)"/><path d="M320.32,238.46a7.57,7.57,0,0,0-3.06-4l-47.42-35.25a3.54,3.54,0,0,1-1.17-1.2l.32-.14c.49-.16,1-.31,1.48-.45A41.75,41.75,0,0,0,290,185.58a65.84,65.84,0,0,0,12.56-20.8,40.82,40.82,0,0,0,2.72-18,37.43,37.43,0,0,1-.33-5.5,6.6,6.6,0,0,1,3.75-5.85c.36-.17.93-.15.87-.79a1.41,1.41,0,0,0-.86-1.2,5.41,5.41,0,0,0-3.52-.41q-5.39,1.23-10.71,2.64a11.22,11.22,0,0,1-3.63.63,11.29,11.29,0,0,0-3.87.62,191,191,0,0,1-25.13,5.43c-3.7.62-7.45,1-10.93,2.49a1.32,1.32,0,0,1-1.61-.41l-4.77-4.55a1.88,1.88,0,0,1-.75-2,.43.43,0,0,0-.16-.57h0a1.71,1.71,0,0,0-2.36.48,1.86,1.86,0,0,0-.25.64c-.07.39-.11.79-.2,1.17q-4.31,17.76-8.6,35.47c-.16.63-.42,1.34,0,1.86.69.9.36,1.62-.09,2.41a17.17,17.17,0,0,0-.89,1.83,65.82,65.82,0,0,0-3.88,15,1.75,1.75,0,0,0,.08,1.29c.82,1.06.31,1.91-.23,2.84a24.87,24.87,0,0,0-3.49,13c0,5,.17,9.91.16,14.86a23.08,23.08,0,0,1-1.09,8,1.81,1.81,0,0,0,.6,2.21c1.15,1,2.25,2.15,3.38,3.23a1.58,1.58,0,0,1,.6,1.59,2.24,2.24,0,0,0,1.1,2.45c.71.52,1.43,1,2.16,1.51a3.63,3.63,0,0,1,1.82,4.16c-.12.63-.21,1.18.61,1.42a1.09,1.09,0,0,0,1.38-.68h0V252c.61-1.51,1.27-3,1.75-4.57q5.13-16.57,10.18-33.17c.28-.94.54-1,1.34-.47,4.19,3,8.42,5.94,12.63,8.91a31.69,31.69,0,0,0,6.46,3.61q7.89,3.18,15.73,6.44c4.69,2,9.31,4,13.14,7.51a1.68,1.68,0,0,0,1.68.28c2-.49,4-1,5.93-1.43a2.91,2.91,0,0,1,2.64.28,2,2,0,0,0,2.51.06,10.71,10.71,0,0,1,8.67-.94c.71.21,1.39.49,1.59,1.29s.59.62,1.09.44C320.65,239.83,320.55,239.11,320.32,238.46ZM259.9,175.22a15.12,15.12,0,0,1-3.55.42c-.57,0-.77-.13-.58-.76.48-1.56.86-3.15,1.31-4.72a1.76,1.76,0,0,0-.18-1.81c-.68-.7-.28-1,.33-1.23a26.61,26.61,0,0,1,11.32-3c2.33,0,4.4-1.07,6.51-1.87s4-1.68,6.27-2.62a15,15,0,0,1-3.88,5.65,37.71,37.71,0,0,1-17.55,9.94Z" transform="translate(-0.01 0.01)"/><path d="M127.37,89.38l-13,3.63a105.19,105.19,0,0,1-11.23-.12q-1.31.21-10.67,3.53-31,3-32.47-6.16,2.09-.32,6.85-16l-.56-3.65L61.77,66l-.57-3.65Q67.74,56.21,67,52q1.58-.24,11.67-7.42,33.92-3.4,56.59-6.94l5.48-.86a141.28,141.28,0,0,0,19.53-4.91q2.1,1.55,14.88-.45l3.37-2.39,3.93,1.26.52-.08q8-6.85,10.56-5.92l3.68,1.3a.77.77,0,0,1-.18.56q10.71.2,11.28,3.85l.28,1.82q-7.81,1.23-10.51,9.65A15.13,15.13,0,0,0,201,48l9.61,1.7q-1,19.38-2.14,22.23-2.23,6.23-69.15,77.26l-38.15,34.56q49.55-9.32,69.89-12.49,41.44-6.45,42.59.85l.28,1.82-7,1.1q-10.17,1.57-16,17.44-7.58,1.19-13.94,16.86a109.83,109.83,0,0,0-14.84.71q-62.39,28.14-89.75,32.4l-7.3,1.13L56,243.09c.38,2.44-.64,3.84-3.08,4.22l-32.59,5.07q-12.76,2-14.19-7.13l4.05-10C9,235.44,8.27,235,8.11,234a12.64,12.64,0,0,1,5.19-2.68Q12.9,228.7,4,219.66q14.57-14.55,14.15-17.16,9.86-3.67,17.5-5.93l-.4-7.61q12.39-6.21,81.48-87.2Q122.16,95.27,127.37,89.38Z" transform="translate(-0.01 0.01)"/><polyline points="206.64 45.67 210.64 49.67 205.92 49.12"/><polyline points="203.34 24.36 207.73 28.76 205.28 30.06 200.43 27.81 203.34 24.36"/><polyline points="57.18 88.85 61.61 93.31 63.99 91"/><polyline points="4 245.74 8.79 250.55 11.59 249.56 9.15 245.74"/><polyline points="208.91 166.61 213.01 170.73 209.05 171.46"/><polyline points="239.85 133.58 243.66 137.32 241.96 139.96 238.74 134.79"/><polyline points="231.32 120.25 235.48 124.39 237.77 120.06 233.67 117.81"/><polyline points="221.25 112.19 225.04 116.03 227.75 111.1 222.02 110.18"/><path d="M260.91,22.13" transform="translate(-0.01 0.01)"/><polyline points="260.54 21.49 264.42 25.34 258.9 29.88 257.05 25.07"/><polyline points="294.63 17.64 298.63 21.64 293.27 26.84 291.15 22.24"/><polyline points="334.82 0.65 338.55 4.35 332.71 10.52 331.03 4.47"/><polyline points="305.29 129.86 309.26 133.84 300.64 137.6 298.87 132.92"/><polyline points="314.87 231.9 319.28 236.42 316.23 237.31"/><polyline points="229.09 248.75 232.66 252.53 235.11 245.01 230.87 244.43"/><polyline points="228.6 248.48 232.66 252.53 233.81 249.43 230.02 247.91"/></g><g id="Layer_1_Image" data-name="Layer 1 Image"><path class="cls-1" d="M339.47,23.57c-.94-2.12-1.84-4.25-2.87-6.32a2.66,2.66,0,0,1,.06-2.82,1.22,1.22,0,0,0-.14-1.71h0a10.88,10.88,0,0,1-3.07-9A1.75,1.75,0,0,1,334.55,2c1-.29.65-.83.28-1.33a1.49,1.49,0,0,0-2.06-.39l-.22.19a13.26,13.26,0,0,0-2,2.48,140.16,140.16,0,0,0-9.39,16.69c-6.73,13.54-13,27.29-19.43,41-4.45,9.51-9,19-13,28.69-1,2.29-.92,2.28-3.47,2.21-.69,0-.92-.15-.72-.89.72-2.66,1.39-5.33,2.35-7.92a6.25,6.25,0,0,1,1.49-2.7,2,2,0,0,0,.65-1.2c1.84-8.75,3.67-17.49,6.2-26.07,1.1-3.71,2.13-7.46,4.28-10.75.27-.42.07-.75-.08-1.11-.89-2.09-1.73-4.21-2.71-6.26a3.09,3.09,0,0,1,0-3.06A1.11,1.11,0,0,0,296.5,30a11.09,11.09,0,0,1-3.14-8.87,2.07,2.07,0,0,1,1.09-2c.88-.41.93-.85.19-1.51-.9-.8-1.67-.64-2.78.72a75.92,75.92,0,0,0-9.51,15.48C274.89,49.56,267.66,65.43,260,81.08c-2.61,5.3-5.2,10.61-8.26,15.67a2.47,2.47,0,0,1-3.29.91c-1-.37-1.21-.76-.41-1.68A16.12,16.12,0,0,0,250,93a96,96,0,0,0,4.34-9.59,18.27,18.27,0,0,0,1.2-3.37,242.88,242.88,0,0,1,5.23-23.72c1.06-3.68,2.09-7.38,4.34-10.57.33-.47.15-.82,0-1.22-.92-2-1.77-4.11-2.79-6.09a3.31,3.31,0,0,1,0-3.28,1.11,1.11,0,0,0-.16-1.48,11.2,11.2,0,0,1-3-8.92,2,2,0,0,1,1.26-2c.28-.1.63-.1.52-.61-.14-.67-1.2-1.62-1.75-1.31-1.19.67-2.57,1.13-3.26,2.48-9.72,19.24-19.49,38.45-28.75,57.91-3,6.34-6.08,12.66-8.49,19.27a6,6,0,0,0-.16,3.64c.61,2.36,1.43,4.65,2.11,7,.34,1.17.87,1.43,2,1,.64-.22,1.36-.2,2-.41a1.9,1.9,0,0,1,2.13.63,17.61,17.61,0,0,1,4,6.88c.46,1.27,1.24,1.74,2.4,1.17a18.82,18.82,0,0,0,4.82-3.32c.44-.42.7-1.81,1.54-.29,0,.09.45,0,.67,0,1.1-.2,2.43-.92,3.25-.54,2,.92,3.73-.28,5.57-.2,1.24,0,2.46.24,3.7.32,1.85.11,3.65.81,5.56.26a9.73,9.73,0,0,1,7.14.21,1.58,1.58,0,0,0,1.05-.06,30.29,30.29,0,0,1,8-.74c6.54.29,13.08.55,19.62.82a8.2,8.2,0,0,0,5.73-1.68,36.86,36.86,0,0,0,10.65-12.62c1.39-2.5,2.35-5.24,3.59-7.84a35.68,35.68,0,0,1,4.28-7.59,10.09,10.09,0,0,0,1.78-3.5,69.22,69.22,0,0,1,2.53-6.84,20,20,0,0,0,1.58-3c3.37-12.81,6.78-25.6,11-38.17,1.24-3.7,2.42-7.44,4.54-10.78A1.37,1.37,0,0,0,339.47,23.57Z" transform="translate(-0.01 0.01)"/><path class="cls-1" d="M316.32,234.46a7.57,7.57,0,0,0-3.06-4l-47.42-35.25a3.54,3.54,0,0,1-1.17-1.2l.32-.14c.49-.16,1-.31,1.48-.45A41.75,41.75,0,0,0,286,181.58a65.84,65.84,0,0,0,12.56-20.8,40.82,40.82,0,0,0,2.72-18,37.43,37.43,0,0,1-.33-5.5,6.6,6.6,0,0,1,3.75-5.85c.36-.17.93-.15.87-.79a1.41,1.41,0,0,0-.86-1.2,5.41,5.41,0,0,0-3.52-.41q-5.39,1.23-10.71,2.64a11.22,11.22,0,0,1-3.63.63,11.29,11.29,0,0,0-3.87.62,191,191,0,0,1-25.13,5.43c-3.7.62-7.45,1-10.93,2.49a1.32,1.32,0,0,1-1.61-.41l-4.77-4.55a1.88,1.88,0,0,1-.75-2,.43.43,0,0,0-.16-.57h0a1.71,1.71,0,0,0-2.36.48,1.86,1.86,0,0,0-.25.64c-.07.39-.11.79-.2,1.17q-4.31,17.76-8.6,35.47c-.16.63-.42,1.34,0,1.86.69.9.36,1.62-.09,2.41a17.17,17.17,0,0,0-.89,1.83,65.82,65.82,0,0,0-3.88,15,1.75,1.75,0,0,0,.08,1.29c.82,1.06.31,1.91-.23,2.84a24.87,24.87,0,0,0-3.49,13c0,5,.17,9.91.16,14.86a23.08,23.08,0,0,1-1.09,8,1.81,1.81,0,0,0,.6,2.21c1.15,1,2.25,2.15,3.38,3.23a1.58,1.58,0,0,1,.6,1.59,2.24,2.24,0,0,0,1.1,2.45c.71.52,1.43,1,2.16,1.51a3.63,3.63,0,0,1,1.82,4.16c-.12.63-.21,1.18.61,1.42a1.09,1.09,0,0,0,1.38-.68h0V248c.61-1.51,1.27-3,1.75-4.57q5.13-16.57,10.18-33.17c.28-.94.54-1,1.34-.47,4.19,3,8.42,5.94,12.63,8.91a31.69,31.69,0,0,0,6.46,3.61q7.89,3.18,15.73,6.44c4.69,2,9.31,4,13.14,7.51a1.68,1.68,0,0,0,1.68.28c2-.49,4-1,5.93-1.43a2.91,2.91,0,0,1,2.64.28,2,2,0,0,0,2.51.06,10.71,10.71,0,0,1,8.67-.94c.71.21,1.39.49,1.59,1.29s.59.62,1.09.44C316.65,235.83,316.55,235.11,316.32,234.46ZM255.9,171.22a15.12,15.12,0,0,1-3.55.42c-.57,0-.77-.13-.58-.76.48-1.56.86-3.15,1.31-4.72a1.76,1.76,0,0,0-.18-1.81c-.68-.7-.28-1,.33-1.23a26.61,26.61,0,0,1,11.32-3c2.33,0,4.4-1.07,6.51-1.87s4-1.68,6.27-2.62a15,15,0,0,1-3.88,5.65,37.71,37.71,0,0,1-17.55,9.94Z" transform="translate(-0.01 0.01)"/><path class="cls-1" d="M123.37,85.38l-13,3.63a105.19,105.19,0,0,1-11.23-.12q-1.31.21-10.67,3.53-31,3-32.47-6.16,2.09-.32,6.85-16l-.56-3.65L57.77,62l-.57-3.65Q63.74,52.21,63,48q1.58-.24,11.67-7.42,33.92-3.4,56.59-6.94l5.48-.86a141.28,141.28,0,0,0,19.53-4.91q2.1,1.55,14.88-.45l3.37-2.39,3.93,1.26.52-.08q8-6.85,10.56-5.92l3.68,1.3a.77.77,0,0,1-.18.56q10.71.2,11.28,3.85l.28,1.82q-7.81,1.23-10.51,9.65A15.13,15.13,0,0,0,197,44l9.61,1.7q-1,19.38-2.14,22.23-2.23,6.23-69.15,77.26L97.21,179.71q49.55-9.32,69.89-12.49,41.44-6.45,42.59.85l.28,1.82-7,1.1q-10.17,1.57-16,17.44-7.58,1.19-13.94,16.86a109.83,109.83,0,0,0-14.84.71q-62.39,28.14-89.75,32.4l-7.3,1.13L52,239.09c.38,2.44-.64,3.84-3.08,4.22l-32.59,5.07q-12.77,2-14.19-7.13l4.05-10C5,231.44,4.27,231,4.11,230a12.64,12.64,0,0,1,5.19-2.68Q8.9,224.7,0,215.66q14.57-14.55,14.15-17.16,9.86-3.67,17.5-5.93l-.4-7.61q12.39-6.21,81.48-87.2Q118.16,91.27,123.37,85.38Z" transform="translate(-0.01 0.01)"/></g></svg>